HIERARCHY
ROOT Hips
{
  OFFSET 50.2519 100.567 13.8744
  CHANNELS 6 Xposition Yposition Zposition Zrotation Xrotation Yrotation
  JOINT spine
  {
    OFFSET 0 8.81704 0.507024
    CHANNELS 3 Zrotation Xrotation Yrotation
    JOINT spine1
    {
      OFFSET 0 10.7766 0
      CHANNELS 3 Zrotation Xrotation Yrotation
      JOINT spine2
      {
        OFFSET 0 10.3259 0
        CHANNELS 3 Zrotation Xrotation Yrotation
        JOINT Neck
        {
          OFFSET 0 26.511 1.26395
          CHANNELS 3 Zrotation Xrotation Yrotation
          JOINT Head
          {
            OFFSET 0 8.00966 0
            CHANNELS 3 Zrotation Xrotation Yrotation
            End Site
            {
              OFFSET 0 19.3879 -6.39386
            }
          }
        }
        JOINT RightShoulder
        {
          OFFSET -4.34795 11.1512 -0.605422
          CHANNELS 3 Zrotation Xrotation Yrotation
          JOINT RightArm
          {
            OFFSET 0 14.6258 0
            CHANNELS 3 Zrotation Xrotation Yrotation
            JOINT RightArmRoll
            {
              OFFSET 0 7.3834 0
              CHANNELS 3 Zrotation Xrotation Yrotation
              JOINT RightForeArm
              {
                OFFSET 0 21.5052 0
                CHANNELS 3 Zrotation Xrotation Yrotation
                JOINT RightForeArmRoll
                {
                  OFFSET 0 8.28532 0
                  CHANNELS 3 Zrotation Xrotation Yrotation
                  JOINT RightHand
                  {
                    OFFSET 0 16.6268 0
                    CHANNELS 3 Zrotation Xrotation Yrotation
                    End Site
                    {
                      OFFSET 0 0 0
                    }
                  }
                }
              }
            }
          }
        }
        JOINT LeftShoulder
        {
          OFFSET 4.34795 11.1512 -0.605422
          CHANNELS 3 Zrotation Xrotation Yrotation
          JOINT LeftArm
          {
            OFFSET 0 14.6258 0
            CHANNELS 3 Zrotation Xrotation Yrotation
            JOINT LeftArmRoll
            {
              OFFSET 0 7.38339 0
              CHANNELS 3 Zrotation Xrotation Yrotation
              JOINT LeftForeArm
              {
                OFFSET 0 21.5052 0
                CHANNELS 3 Zrotation Xrotation Yrotation
                JOINT LeftForeArmRoll
                {
                  OFFSET 0 8.28531 0
                  CHANNELS 3 Zrotation Xrotation Yrotation
                  JOINT LeftHand
                  {
                    OFFSET 0 16.6268 0
                    CHANNELS 3 Zrotation Xrotation Yrotation
                    End Site
                    {
                      OFFSET 0 0 0
                    }
                  }
                }
              }
            }
          }
        }
      }
    }
  }
  JOINT RightUpLeg
  {
    OFFSET -7.8151 -1.43309 -1.20217
    CHANNELS 3 Zrotation Xrotation Yrotation
    JOINT RightUpLegRoll
    {
      OFFSET 0 19.4959 0
      CHANNELS 3 Zrotation Xrotation Yrotation
      JOINT RightLeg
      {
        OFFSET 0 -24.1427 0
        CHANNELS 3 Zrotation Xrotation Yrotation
        JOINT RightLegRoll
        {
          OFFSET 0 24.2217 0
          CHANNELS 3 Zrotation Xrotation Yrotation
          JOINT RightFoot
          {
            OFFSET 0 20.1605 0
            CHANNELS 3 Zrotation Xrotation Yrotation
            JOINT RightToeBase
            {
              OFFSET 0 16.8532 0
              CHANNELS 3 Zrotation Xrotation Yrotation
              End Site
              {
                OFFSET 0.00714343 8.16187 -0.94078
              }
            }
          }
        }
      }
    }
  }
  JOINT LeftUpLeg
  {
    OFFSET 7.8151 -1.43309 -1.20217
    CHANNELS 3 Zrotation Xrotation Yrotation
    JOINT LeftUpLegRoll
    {
      OFFSET 0 19.496 0
      CHANNELS 3 Zrotation Xrotation Yrotation
      JOINT LeftLeg
      {
        OFFSET 0 24.1426 0
        CHANNELS 3 Zrotation Xrotation Yrotation
        JOINT LeftLegRoll
        {
          OFFSET 0 24.4456 0
          CHANNELS 3 Zrotation Xrotation Yrotation
          JOINT LeftFoot
          {
            OFFSET 0 19.9366 0
            CHANNELS 3 Zrotation Xrotation Yrotation
            JOINT LeftToeBase
            {
              OFFSET 0 16.8532 0
              CHANNELS 3 Zrotation Xrotation Yrotation
              End Site
              {
                OFFSET -0.0320138 8.16187 -0.94078
              }
            }
          }
        }
      }
    }
  }
}
MOTION
Frames: 10
Frame Time: 0.00208333
51.1296 100.567 14.3693 -0.461258 -2.66584 3.54127 -0.182836 -2.4824 -0.192819 -0.37076 -0.963972 -0.371797 -0.366328 0.68107 -0.365639 0.539978 19.5292 0.215715 -1.30963 0.944746 0.239688 40.1769 -9.38839 -5.59984 48.2477 29.3606 33.3217 7.30424e-006 -2.64605e-006 8.96063e-007 -167.651 69.6642 165.813 -5.11514e-007 4.32656e-006 -3.00785 8.02906 -4.95144 0.697681 -63.2881 -3.14808 2.36105 -107.843 14.711 -5.40632 7.32409e-006 -1.14697e-006 3.3282e-006 -11.8878 2.56667 0.686554 6.20834e-006 5.14199e-006 3 -8.02887 -4.95144 -0.697698 178.494 -2.37852 -0.259672 180 7.01538e-015 178.886 178.427 5.70643 179.73 -2.21457e-006 -1.97484e-007 0.0678952 -18.7263 68.0577 19.5698 8.15607 25.5211 -3.0937 -175.66 -1.21017 1.41242 4.54188e-006 -4.6773e-006 -1.13242 -2.12189 -8.5193 0.173713 -4.00555e-006 -7.80443e-006 -0.179344 20.3637 69.9363 -21.2959 -8.14866 25.4219 3.2302 
51.126 100.572 14.3683 -0.460241 -2.66182 3.5632 -0.183132 -2.48144 -0.192173 -0.371529 -0.961874 -0.371293 -0.367105 0.683168 -0.365122 0.550595 19.4492 0.215788 -1.30422 0.996687 0.244072 40.1503 -9.38977 -5.60062 48.2835 29.2974 33.1595 7.30424e-006 -2.64605e-006 8.96063e-007 -167.673 69.3784 165.76 -5.11514e-007 4.32656e-006 -3.00785 8.02906 -4.95144 0.697681 -63.2984 -3.15467 2.36559 -107.86 14.7343 -5.37839 7.32409e-006 -1.14697e-006 3.3282e-006 -11.8974 2.57137 0.686638 6.20834e-006 5.14199e-006 3 -8.02887 -4.95144 -0.697698 178.498 -2.37504 -0.263156 180 7.01538e-015 178.886 178.43 5.71074 179.73 -2.21457e-006 -1.97484e-007 0.0678491 -18.7293 68.0611 19.573 8.15612 25.5218 -3.09249 -175.657 -1.20125 1.41354 4.54188e-006 -4.6773e-006 -1.13243 -2.11937 -8.5176 0.173974 -4.00555e-006 -7.80443e-006 -0.179256 20.3619 69.9343 -21.2939 -8.14855 25.4204 3.23165 
51.1144 100.572 14.3711 -0.459343 -2.65768 3.58516 -0.183444 -2.48056 -0.191517 -0.372316 -0.959985 -0.370674 -0.367901 0.685057 -0.364489 0.558012 19.374 0.216875 -1.2948 1.04279 0.248862 40.124 -9.39103 -5.60129 48.3183 29.235 33.0083 7.30424e-006 -2.64605e-006 8.96063e-007 -167.696 69.1056 165.713 -5.11514e-007 4.32656e-006 -3.00785 8.02906 -4.95144 0.697681 -63.3101 -3.16038 2.36976 -107.875 14.7571 -5.35141 7.32409e-006 -1.14697e-006 3.3282e-006 -11.907 2.57602 0.686693 6.20834e-006 5.14199e-006 3 -8.02887 -4.95144 -0.697698 178.503 -2.37125 -0.266741 180 7.01538e-015 178.886 178.432 5.71535 179.73 -2.21457e-006 -1.97484e-007 0.067807 -18.7325 68.0647 19.5765 8.15617 25.5225 -3.09139 -175.655 -1.19204 1.41454 4.54188e-006 -4.6773e-006 -1.13245 -2.11698 -8.51613 0.174214 -4.00555e-006 -7.80443e-006 -0.179167 20.3601 69.9323 -21.292 -8.14845 25.4188 3.23316 
51.1184 100.571 14.3693 -0.458579 -2.65342 3.60705 -0.183774 -2.47977 -0.190852 -0.373118 -0.958329 -0.369916 -0.368715 0.686713 -0.363717 0.560892 19.3053 0.219531 -1.27937 1.08094 0.25438 40.0981 -9.39205 -5.60177 48.3524 29.1739 32.8689 7.30424e-006 -2.64605e-006 8.96063e-007 -167.72 68.8462 165.672 -5.11514e-007 4.32656e-006 -3.00785 8.02906 -4.95144 0.697681 -63.3234 -3.1651 2.3735 -107.888 14.7795 -5.32562 7.32409e-006 -1.14697e-006 3.3282e-006 -11.9163 2.58056 0.686714 6.20834e-006 5.14199e-006 3 -8.02887 -4.95144 -0.697698 178.507 -2.36716 -0.270421 180 7.01538e-015 178.885 178.435 5.72032 179.73 -2.21457e-006 -1.97484e-007 0.0677692 -18.7359 68.0687 19.5802 8.15622 25.5232 -3.09041 -175.652 -1.18258 1.41537 4.54188e-006 -4.6773e-006 -1.13246 -2.11476 -8.51487 0.174429 -4.00555e-006 -7.80443e-006 -0.179079 20.3584 69.9303 -21.2901 -8.14835 25.4173 3.23474 
51.1116 100.572 14.3674 -0.457961 -2.64906 3.6288 -0.184121 -2.47909 -0.190177 -0.373936 -0.956934 -0.368996 -0.369545 0.688109 -0.362782 0.557902 19.2447 0.224309 -1.25589 1.10905 0.260948 40.0728 -9.39273 -5.60196 48.3855 29.1144 32.7422 7.30424e-006 -2.64605e-006 8.96063e-007 -167.745 68.6009 165.639 -5.11514e-007 4.32656e-006 -3.00785 8.02906 -4.95144 0.697681 -63.3383 -3.16872 2.37676 -107.9 14.8014 -5.30129 7.32409e-006 -1.14697e-006 3.3282e-006 -11.9254 2.58494 0.686699 6.20834e-006 5.14199e-006 3 -8.02887 -4.95144 -0.697698 178.511 -2.36275 -0.274191 180 7.01538e-015 178.885 178.438 5.72561 179.73 -2.21457e-006 -1.97484e-007 0.0677363 -18.7396 68.073 19.5842 8.15626 25.5238 -3.08957 -175.649 -1.17292 1.41602 4.54188e-006 -4.6773e-006 -1.13247 -2.11274 -8.51382 0.174614 -4.00555e-006 -7.80443e-006 -0.178992 20.3566 69.9283 -21.2882 -8.14825 25.4159 3.23639 
51.109 100.574 14.3667 -0.457503 -2.64464 3.65031 -0.184485 -2.47851 -0.189494 -0.374769 -0.955824 -0.367888 -0.370392 0.689219 -0.36166 0.547707 19.1938 0.231764 -1.22235 1.125 0.268885 40.048 -9.39296 -5.60179 48.4178 29.0569 32.6293 7.30424e-006 -2.64605e-006 8.96063e-007 -167.772 68.3705 165.613 -5.11514e-007 4.32656e-006 -3.00785 8.02906 -4.95144 0.697681 -63.3552 -3.17114 2.37951 -107.908 14.8227 -5.27867 7.32409e-006 -1.14697e-006 3.3282e-006 -11.934 2.58911 0.686643 6.20834e-006 5.14199e-006 3 -8.02887 -4.95144 -0.697698 178.515 -2.35802 -0.278043 180 7.01538e-015 178.885 178.441 5.73128 179.729 -2.21457e-006 -1.97484e-007 0.0677086 -18.7436 68.0776 19.5885 8.1563 25.5244 -3.0889 -175.646 -1.16311 1.41644 4.54188e-006 -4.6773e-006 -1.13247 -2.11096 -8.51296 0.174765 -4.00555e-006 -7.80443e-006 -0.178904 20.3548 69.9263 -21.2863 -8.14815 25.4144 3.23812 
51.1106 100.573 14.3574 -0.457227 -2.64001 3.6719 -0.184867 -2.47805 -0.188783 -0.375611 -0.955019 -0.366565 -0.371249 0.690024 -0.360321 0.532049 19.1511 0.241073 -1.18128 1.13086 0.277694 40.0241 -9.3927 -5.6012 48.4492 29.0009 32.5296 7.30424e-006 -2.64605e-006 8.96063e-007 -167.797 68.1548 165.593 -5.11514e-007 4.32656e-006 -3.00785 8.02906 -4.95144 0.697681 -63.3743 -3.17213 2.38166 -107.914 14.8437 -5.2577 7.32409e-006 -1.14697e-006 3.3282e-006 -11.9424 2.59318 0.686541 6.20834e-006 5.14199e-006 3 -8.02887 -4.95144 -0.697698 178.52 -2.35271 -0.282014 180 7.01538e-015 178.885 178.445 5.73759 179.729 -2.21457e-006 -1.97484e-007 0.0676855 -18.748 68.0827 19.5934 8.15634 25.525 -3.0884 -175.644 -1.15272 1.41667 4.54188e-006 -4.6773e-006 -1.13248 -2.10937 -8.51265 0.174878 -4.00555e-006 -7.80443e-006 -0.178817 20.3531 69.9244 -21.2845 -8.14805 25.413 3.23996 
51.1088 100.573 14.3575 -0.457134 -2.63506 3.69389 -0.18527 -2.47771 -0.188031 -0.376457 -0.954506 -0.365033 -0.372114 0.690537 -0.358773 0.513748 19.1134 0.250992 -1.13684 1.13057 0.286634 40.0013 -9.39205 -5.60028 48.4798 28.946 32.4416 7.30424e-006 -2.64605e-006 8.96063e-007 -167.819 67.9532 165.575 -5.11514e-007 4.32656e-006 -3.00785 8.02906 -4.95144 0.697681 -63.3959 -3.17166 2.38319 -107.917 14.8643 -5.23801 7.32409e-006 -1.14697e-006 3.3282e-006 -11.9507 2.5973 0.686395 6.20834e-006 5.14199e-006 3 -8.02887 -4.95144 -0.697698 178.524 -2.34664 -0.286138 180 7.01538e-015 178.885 178.448 5.74475 179.729 -2.21457e-006 -1.97484e-007 0.067666 -18.753 68.0886 19.5988 8.15638 25.5255 -3.08806 -175.641 -1.1414 1.41677 4.54188e-006 -4.6773e-006 -1.13248 -2.10788 -8.5132 0.174956 -4.00555e-006 -7.80443e-006 -0.178729 20.3517 69.9227 -21.2829 -8.14795 25.4115 3.24191 
51.1008 100.574 14.3622 -0.457205 -2.62984 3.71622 -0.185692 -2.47746 -0.187244 -0.37731 -0.954257 -0.363319 -0.372987 0.690786 -0.357045 0.493091 19.0801 0.261444 -1.08952 1.12485 0.29567 39.9793 -9.39109 -5.5991 48.5097 28.892 32.3648 7.30424e-006 -2.64605e-006 8.96063e-007 -167.838 67.7651 165.559 -5.11514e-007 4.32656e-006 -3.00785 8.02906 -4.95144 0.697681 -63.4196 -3.16989 2.38418 -107.918 14.8847 -5.21945 7.32409e-006 -1.14697e-006 3.3282e-006 -11.9589 2.60148 0.686209 6.20834e-006 5.14199e-006 3 -8.02887 -4.95144 -0.697698 178.528 -2.33991 -0.290406 180 7.01538e-015 178.885 178.452 5.75264 179.729 -2.21457e-006 -1.97484e-007 0.06765 -18.7585 68.095 19.6048 8.15641 25.526 -3.08785 -175.638 -1.12928 1.41674 4.54188e-006 -4.6773e-006 -1.13249 -2.10649 -8.51447 0.175005 -4.00555e-006 -7.80443e-006 -0.178641 20.3504 69.9212 -21.2815 -8.14785 25.41 3.24395 
51.0969 100.575 14.3573 -0.457422 -2.62437 3.73883 -0.186132 -2.47731 -0.18643 -0.378174 -0.954245 -0.361455 -0.373873 0.690799 -0.355164 0.470362 19.0507 0.272348 -1.03978 1.11442 0.304767 39.9581 -9.38993 -5.59776 48.5391 28.839 32.2985 7.30424e-006 -2.64605e-006 8.96063e-007 -167.854 67.5902 165.545 -5.11514e-007 4.32656e-006 -3.00785 8.02906 -4.95144 0.697681 -63.4452 -3.167 2.38469 -107.917 14.9048 -5.20186 7.32409e-006 -1.14697e-006 3.3282e-006 -11.9672 2.60569 0.685987 6.20834e-006 5.14199e-006 3 -8.02887 -4.95144 -0.697698 178.532 -2.33264 -0.294807 180 7.01538e-015 178.885 178.456 5.76114 179.729 -2.21457e-006 -1.97484e-007 0.0676375 -18.7645 68.1019 19.6112 8.15645 25.5265 -3.08776 -175.636 -1.11649 1.4166 4.54188e-006 -4.6773e-006 -1.13249 -2.10519 -8.5163 0.17503 -4.00555e-006 -7.80443e-006 -0.178552 20.3493 69.9199 -21.2803 -8.14774 25.4084 3.24608 
